<?xml version="1.0" standalone="no"?>
<!DOCTYPE svg PUBLIC "-//W3C//DTD SVG 20010904//EN"
 "http://www.w3.org/TR/2001/REC-SVG-20010904/DTD/svg10.dtd">
<svg version="1.0" xmlns="http://www.w3.org/2000/svg"
 width="300.000000pt" height="300.000000pt" viewBox="0 0 300.000000 300.000000"
 preserveAspectRatio="xMidYMid meet">

<g transform="translate(0.000000,300.000000) scale(0.100000,-0.100000)"
fill="#000000" stroke="none">
<path d="M695 2989 c-63 -15 -166 -50 -210 -72 -186 -92 -355 -275 -429 -465
-56 -143 -56 -138 -56 -952 0 -814 0 -809 56 -952 83 -213 279 -409 492 -492
143 -56 138 -56 957 -56 731 0 759 1 837 21 315 80 563 330 638 642 19 78 20
120 20 835 0 816 0 811 -56 954 -83 213 -279 409 -492 492 -144 56 -137 56
-959 55 -421 -1 -776 -5 -798 -10z m864 -635 c6 -14 223 -407 481 -874 259
-467 470 -851 470 -854 0 -3 -105 -6 -232 -6 l-233 1 -144 262 c-80 144 -254
460 -388 701 -134 241 -243 445 -241 452 2 7 44 88 93 178 l90 165 46 1 c40 0
47 -3 58 -26z m-320 -808 c61 -109 111 -200 111 -203 0 -3 -89 -167 -197 -364
l-198 -358 -232 -1 c-128 0 -233 3 -233 6 0 16 626 1132 631 1126 4 -4 57 -96
118 -206z"/>
</g>
</svg>
