<?xml version="1.0" encoding="UTF-8"?>
<svg version="1.1" xmlns="http://www.w3.org/2000/svg" width="300" height="300">
<path d="M0 0 C1.61598174 -0.00571343 3.23195945 -0.01268142 4.84793091 -0.02079773 C9.20757641 -0.03863775 13.56701963 -0.03757802 17.92669058 -0.03185534 C21.57946421 -0.02874991 25.23219974 -0.03487099 28.88496792 -0.04089409 C37.50928213 -0.0549079 46.1334972 -0.05340453 54.7578125 -0.04199219 C63.62552675 -0.03051634 72.49293837 -0.04458484 81.36061275 -0.07138866 C89.00176034 -0.09361187 96.6428134 -0.10016811 104.28399098 -0.09431225 C108.83554852 -0.09095699 113.38691218 -0.09326173 117.93844223 -0.11056328 C122.2215908 -0.1261362 126.50429435 -0.12196346 130.78742599 -0.10325813 C132.34937969 -0.09960056 133.91136712 -0.10259696 135.47328949 -0.11314392 C158.17322007 -0.25459404 177.24522353 9.10687522 193.46923828 24.77905273 C200.39091754 31.9559996 205.42636846 39.51668253 209.96923828 48.34155273 C210.29883545 48.97343506 210.62843262 49.60531738 210.96801758 50.25634766 C216.358367 61.12943673 217.16174163 71.72788416 217.12329102 83.68481445 C217.12900444 85.30079619 217.13597244 86.9167739 217.14408875 88.53274536 C217.16192877 92.89239087 217.16086904 97.25183409 217.15514636 101.61150503 C217.15204093 105.26427866 217.15816201 108.91701419 217.16418511 112.56978238 C217.17819892 121.19409658 217.17669555 129.81831166 217.1652832 138.44262695 C217.15380736 147.3103412 217.16787585 156.17775282 217.19467968 165.0454272 C217.21690288 172.68657479 217.22345912 180.32762785 217.21760327 187.96880543 C217.21424801 192.52036297 217.21655275 197.07172663 217.23385429 201.62325668 C217.24942722 205.90640525 217.24525447 210.1891088 217.22654915 214.47224045 C217.22289157 216.03419414 217.22588797 217.59618158 217.23643494 219.15810394 C217.37788505 241.85803452 208.01641579 260.93003799 192.34423828 277.15405273 C185.16729142 284.07573199 177.60660849 289.11118291 168.78173828 293.65405273 C168.14985596 293.9836499 167.51797363 294.31324707 166.86694336 294.65283203 C155.99385429 300.04318145 145.39540685 300.84655608 133.43847656 300.80810547 C131.82249482 300.81381889 130.20651711 300.82078689 128.59054565 300.8289032 C124.23090015 300.84674322 119.87145693 300.84568349 115.51178598 300.83996081 C111.85901235 300.83685538 108.20627682 300.84297646 104.55350864 300.84899956 C95.92919444 300.86301337 87.30497936 300.86151 78.68066406 300.85009766 C69.81294981 300.83862181 60.9455382 300.85269031 52.07786381 300.87949413 C44.43671622 300.90171734 36.79566317 300.90827358 29.15448558 300.90241772 C24.60292805 300.89906246 20.05156438 300.9013672 15.50003433 300.91866875 C11.21688576 300.93424167 6.93418222 300.93006893 2.65105057 300.9113636 C1.08909688 300.90770602 -0.47289056 300.91070242 -2.03481293 300.92124939 C-24.7347435 301.06269951 -43.80674697 291.70123025 -60.03076172 276.02905273 C-66.95244098 268.85210587 -71.9878919 261.29142294 -76.53076172 252.46655273 C-76.86035889 251.83467041 -77.18995605 251.20278809 -77.52954102 250.55175781 C-82.91989044 239.67866874 -83.72326506 229.08022131 -83.68481445 217.12329102 C-83.69052788 215.50730928 -83.69749587 213.89133157 -83.70561218 212.27536011 C-83.72345221 207.9157146 -83.72239247 203.55627138 -83.7166698 199.19660044 C-83.71356436 195.54382681 -83.71968544 191.89109128 -83.72570854 188.23832309 C-83.73972235 179.61400889 -83.73821898 170.98979381 -83.72680664 162.36547852 C-83.7153308 153.49776426 -83.72939929 144.63035265 -83.75620311 135.76267827 C-83.77842632 128.12153067 -83.78498256 120.48047762 -83.7791267 112.83930004 C-83.77577144 108.2877425 -83.77807619 103.73637884 -83.79537773 99.18484879 C-83.81095066 94.90170022 -83.80677791 90.61899667 -83.78807259 86.33586502 C-83.78441501 84.77391133 -83.78741141 83.21192389 -83.79795837 81.65000153 C-83.93940849 58.95007095 -74.57793923 39.87806748 -58.90576172 23.65405273 C-51.72881486 16.73237348 -44.16813192 11.69692256 -35.34326172 7.15405273 C-34.71137939 6.82445557 -34.07949707 6.4948584 -33.4284668 6.15527344 C-22.55537772 0.76492402 -11.95693029 -0.03845061 0 0 Z " fill="#393939" transform="translate(83.28076171875,-0.404052734375)"/>
<path d="M0 0 C3.3 0 6.6 0 10 0 C10.64324219 1.24910156 11.28648437 2.49820313 11.94921875 3.78515625 C17.43493407 14.37858135 23.11061773 24.83480223 29.02026367 35.19750977 C32.93924667 42.08354977 36.74670385 49.02240713 40.5 56 C44.68746416 63.77824132 48.94724599 71.50760108 53.3125 79.1875 C58.20725634 87.79995271 63.03327985 96.44808498 67.8125 105.125 C68.1468808 105.73197723 68.4812616 106.33895447 68.82577515 106.96432495 C70.87573005 110.68614031 72.92411383 114.40881873 74.97210693 118.13171387 C77.68654709 123.06544779 80.40326899 127.99792328 83.12167358 132.92947388 C83.78730013 134.13724684 84.45268746 135.34515166 85.11782837 136.55319214 C88.75357711 143.15586655 92.41031321 149.74554699 96.1171875 156.30859375 C96.61196091 157.18594681 96.61196091 157.18594681 97.11672974 158.08102417 C98.68458962 160.8608314 100.25667408 163.63806162 101.83642578 166.41113281 C102.38540527 167.38276367 102.93438477 168.35439453 103.5 169.35546875 C103.9846875 170.20778076 104.469375 171.06009277 104.96875 171.93823242 C106 174 106 174 106 176 C90.49 176 74.98 176 59 176 C55.596875 169.626875 55.596875 169.626875 52.125 163.125 C46.55526723 152.71534079 40.92142162 142.34743109 35.14746094 132.04931641 C33.19310428 128.55891859 31.25367646 125.06023937 29.3125 121.5625 C26.40923389 116.33500133 23.50428243 111.10844368 20.59765625 105.8828125 C19.35670238 103.65107973 18.11581907 101.41930772 16.875 99.1875 C16.24279541 98.05062744 15.61059082 96.91375488 14.95922852 95.74243164 C11.58158776 89.66516173 8.21579398 83.5816011 4.8671875 77.48828125 C4.52544998 76.86693298 4.18371246 76.24558472 3.83161926 75.60540771 C1.06674809 70.57830978 1.06674809 70.57830978 -0.26101685 68.15411377 C-3.57731149 62.09946711 -6.91961516 56.07104762 -10.48828125 50.16015625 C-11.01196289 49.28810547 -11.53564453 48.41605469 -12.07519531 47.51757812 C-13.03210322 45.93802036 -14.003076 44.36685369 -14.99121094 42.80664062 C-15.61624512 41.77506836 -15.61624512 41.77506836 -16.25390625 40.72265625 C-16.61814697 40.14265869 -16.9823877 39.56266113 -17.35766602 38.96508789 C-18.60468773 35.15008302 -17.40001777 31.85752876 -15.7565918 28.33447266 C-15.24265869 27.4532373 -14.72872559 26.57200195 -14.19921875 25.6640625 C-13.63396484 24.68179688 -13.06871094 23.69953125 -12.48632812 22.6875 C-11.89271484 21.676875 -11.29910156 20.66625 -10.6875 19.625 C-9.52291246 17.61824673 -8.36011559 15.61045307 -7.19921875 13.6015625 C-6.37429932 12.17505371 -6.37429932 12.17505371 -5.53271484 10.71972656 C-3.55215211 7.20531611 -1.75511949 3.63158057 0 0 Z " fill="#E9EAEC" transform="translate(145,62)"/>
<path d="M0 0 C2.89656445 2.55279274 4.51268228 5.4450379 6.36328125 8.8125 C6.67774704 9.38145996 6.99221283 9.95041992 7.31620789 10.53662109 C8.31979778 12.35513784 9.31621934 14.17747059 10.3125 16 C11.29645855 17.7865914 12.28180174 19.57241376 13.26730347 21.3581543 C14.23147165 23.11260886 15.18535806 24.87270095 16.13916016 26.6328125 C17.34679956 28.81803457 18.59464322 30.98169183 19.88818359 33.1171875 C24.07375806 40.14352576 24.07375806 40.14352576 23.73828125 44.0390625 C23.16464844 45.01617187 22.59101563 45.99328125 22 47 C21.60474121 47.7331543 21.20948242 48.46630859 20.80224609 49.22167969 C19.31189162 51.96897862 17.75501608 54.67102334 16.1875 57.375 C10.97535636 66.47620467 5.89667824 75.6369523 0.93041992 84.87451172 C-4.31402349 94.62103839 -9.66482964 104.29969025 -15 114 C-30.51 114 -46.02 114 -62 114 C-60.62807169 109.88421507 -59.60598717 107.00353242 -57.5234375 103.40234375 C-56.77743286 102.09982666 -56.77743286 102.09982666 -56.01635742 100.77099609 C-55.47470947 99.83594238 -54.93306152 98.90088867 -54.375 97.9375 C-53.19002588 95.86667468 -52.00649879 93.79502086 -50.82421875 91.72265625 C-50.19950684 90.62840332 -49.57479492 89.53415039 -48.93115234 88.40673828 C-45.63393076 82.59012261 -42.41043651 76.73296267 -39.1875 70.875 C-38.51101929 69.64654761 -37.83450539 68.41811348 -37.15795898 67.18969727 C-35.78903753 64.70356988 -34.4206947 62.21712511 -33.05273438 59.73046875 C-29.68523767 53.60963764 -26.31166213 47.49215855 -22.9375 41.375 C-22.61147797 40.78383392 -22.28545593 40.19266785 -21.94955444 39.58358765 C-14.66295696 26.37243477 -7.33587436 13.18384204 0 0 Z " fill="#E9EAEC" transform="translate(111,124)"/>
<path d="M0 0 C0.66 0.33 1.32 0.66 2 1 C0.61240749 2.61130023 -0.78545623 4.21375841 -2.1875 5.8125 C-2.96480469 6.70582031 -3.74210937 7.59914063 -4.54296875 8.51953125 C-6.89417119 10.8931617 -9.06791184 12.43240047 -12 14 C-10.41332422 10.09714233 -7.86649519 7.66479018 -4.875 4.75 C-3.96492188 3.85796875 -3.05484375 2.9659375 -2.1171875 2.046875 C-1.41851562 1.37140625 -0.71984375 0.6959375 0 0 Z " fill="#A8A8A8" transform="translate(30,18)"/>
</svg>
